PathFileType	4	(X/Y/Z)	C:/Users/cmwille/Documents/OptiTrack/OpenSim_Lab5_04202021/group4_jump_2.trc
DataRate	CameraRate	NumFrames	NumMarkers	Units	OrigDataRate	OrigDataStartFrame	OrigNumFrames
200	200	7	39	m	200	105	841
Frame#	Time	L.ASIS			L.Acromium			L.Ankle.Lat			L.Ankle.Med			L.Heel			L.Knee.Lat			L.Knee.Med			L.Midfoot.Lat			L.Midfoot.Sup			L.Shank.Front			L.Shank.Rear			L.Shank.Upper			L.Thigh.Front			L.Thigh.Rear			L.Thigh.Upper			L.Toe.Lat			L.Toe.Med			L.Toe.Tip			R.ASIS			R.Acromium			R.Ankle.Lat			R.Ankle.Med			R.Heel			R.Knee.Lat			R.Knee.Med			R.Midfoot.Lat			R.Midfoot.Sup			R.Shank.Front			R.Shank.Rear			R.Shank.Upper			R.Thigh.Front			R.Thigh.Rear			R.Thigh.Upper			R.Toe.Lat			R.Toe.Med			R.Toe.Tip			Sternum			Top.Head			V.Sacral			
		X1	Y1	Z1	X2	Y2	Z2	X3	Y3	Z3	X4	Y4	Z4	X5	Y5	Z5	X6	Y6	Z6	X7	Y7	Z7	X8	Y8	Z8	X9	Y9	Z9	X10	Y10	Z10	X11	Y11	Z11	X12	Y12	Z12	X13	Y13	Z13	X14	Y14	Z14	X15	Y15	Z15	X16	Y16	Z16	X17	Y17	Z17	X18	Y18	Z18	X19	Y19	Z19	X20	Y20	Z20	X21	Y21	Z21	X22	Y22	Z22	X23	Y23	Z23	X24	Y24	Z24	X25	Y25	Z25	X26	Y26	Z26	X27	Y27	Z27	X28	Y28	Z28	X29	Y29	Z29	X30	Y30	Z30	X31	Y31	Z31	X32	Y32	Z32	X33	Y33	Z33	X34	Y34	Z34	X35	Y35	Z35	X36	Y36	Z36	X37	Y37	Z37	X38	Y38	Z38	X39	Y39	Z39
105	0.525	0.383713	1.03392	2.31665	0.453461	1.523	2.18096	0.488543	0.119966	2.12343	0.380655	0.122978	2.14555	0.428393	0.0719342	2.04622	0.455747	0.530732	2.21367	0.331914	0.506188	2.22153	0.515995	0.0449779	2.16882	0.386123	0.0426476	2.20493	0.413568	0.444988	2.24079	0.466549	0.367366	2.20613	0.466509	0.480835	2.1818	0.477932	0.704976	2.23858	0.408986	0.620424	2.1055	0.411303	0.700359	2.10561	0.521845	0.0583891	2.27655	0.391915	0.0511306	2.28416	0.449711	0.0687327	2.3461	0.0718209	1.06045	2.25962	0.0475903	1.51259	2.18337	-0.0387008	0.131626	2.12946	0.0681206	0.133162	2.16146	0.0214871	0.0720256	2.05325	0.008759	0.535154	2.21171	0.13286	0.527107	2.22566	-0.0882645	-0.0186005	2.15161	0.0580484	0.0458324	2.2122	0.0533855	0.468084	2.23538	0.0104654	0.381737	2.22066	-0.00231645	0.486799	2.18446	0.00617393	0.724465	2.27584	0.0175828	0.635897	2.12903	0.02561	0.711274	2.1217	-0.0905673	0.040826	2.25566	0.0440853	0.049006	2.28685	-0.0175179	0.0714411	2.35768	0.251993	1.35657	2.36655	0.191803	1.8412	2.41729	0.250572	1.07891	2.11868
106	0.53	0.383718	1.0339	2.31673	0.453494	1.52295	2.18102	0.488549	0.119972	2.12345	0.380653	0.122999	2.14557	0.4284	0.0719476	2.04622	0.45577	0.530737	2.21372	0.331928	0.506206	2.22162	0.515989	0.0449702	2.16883	0.386132	0.0426524	2.20493	0.413569	0.444973	2.24081	0.466558	0.367377	2.20616	0.466509	0.480835	2.18183	0.47794	0.704977	2.23866	0.40901	0.620441	2.10556	0.411301	0.700367	2.1057	0.521845	0.0583873	2.27655	0.391919	0.0511287	2.28417	0.44972	0.0687089	2.3461	0.0718291	1.06045	2.25966	0.0476147	1.51257	2.18339	-0.0386923	0.13162	2.12947	0.0681103	0.133157	2.16147	0.021489	0.0720457	2.05326	0.00876305	0.535166	2.21177	0.13287	0.527129	2.22573	-0.0881958	-0.0183973	2.15161	0.0580438	0.0458326	2.21221	0.0533845	0.468091	2.23543	0.0104796	0.381738	2.2207	-0.00230923	0.4868	2.1845	0.00617576	0.724456	2.27592	0.0175997	0.635925	2.12909	0.0256054	0.711284	2.12177	-0.090581	0.0407955	2.25565	0.0440754	0.0490038	2.28686	-0.017527	0.0714387	2.3577	0.252004	1.35657	2.36658	0.19185	1.84119	2.41738	0.250574	1.07891	2.11877
107	0.535	0.383725	1.03394	2.31685	0.453521	1.52293	2.18106	0.488548	0.119973	2.12345	0.380656	0.122997	2.14558	0.428415	0.0719405	2.04621	0.455773	0.530739	2.21377	0.331942	0.506236	2.22169	0.515988	0.0449723	2.16883	0.386126	0.0426611	2.20494	0.413582	0.444979	2.24085	0.466569	0.367374	2.20617	0.46652	0.480839	2.18185	0.477938	0.704987	2.23875	0.409018	0.620474	2.10562	0.411316	0.700401	2.10577	0.521839	0.0583759	2.27656	0.391924	0.0511233	2.28417	0.449727	0.0687005	2.34612	0.0718317	1.06045	2.25972	0.0476576	1.51255	2.18343	-0.0387032	0.131652	2.1295	0.0681178	0.133137	2.16148	0.0215005	0.0720727	2.05328	0.00876509	0.535163	2.21181	0.132883	0.527121	2.22577	-0.0881271	-0.0181932	2.15173	0.0580456	0.0458284	2.21221	0.0533797	0.468093	2.23548	0.0104935	0.381729	2.22074	-0.00229202	0.486774	2.18455	0.00617628	0.724439	2.27599	0.017588	0.635937	2.12915	0.0256097	0.711302	2.12184	-0.0905753	0.0408122	2.25566	0.0440719	0.0489876	2.28686	-0.017522	0.0714205	2.3577	0.252004	1.35656	2.36662	0.191896	1.84118	2.41747	0.250592	1.07891	2.11886
108	0.54	0.383724	1.03393	2.31692	0.453555	1.52289	2.1811	0.488555	0.119971	2.12346	0.380663	0.123012	2.1456	0.428399	0.0719373	2.04623	0.45578	0.530741	2.21379	0.331932	0.506208	2.22169	0.515891	0.0447138	2.16875	0.386132	0.0426456	2.20494	0.413603	0.444988	2.24091	0.466577	0.367373	2.20618	0.466521	0.480827	2.18188	0.477947	0.704973	2.23881	0.409019	0.620467	2.10568	0.411343	0.700092	2.10586	0.521847	0.0583844	2.27657	0.391929	0.0511239	2.28418	0.44973	0.0686755	2.34612	0.0718414	1.06046	2.25977	0.0476927	1.51254	2.18344	-0.0386877	0.131643	2.12951	0.0681374	0.133147	2.16149	0.0215203	0.0720584	2.05327	0.00876454	0.535162	2.21185	0.132888	0.527111	2.22581	-0.0880585	-0.0179892	2.15173	0.0580569	0.045825	2.2122	0.0533965	0.468103	2.23552	0.0105009	0.381731	2.22077	-0.00228127	0.486771	2.18459	0.00617417	0.724423	2.27608	0.0175804	0.635938	2.12921	0.0256017	0.71131	2.12191	-0.0905737	0.0408145	2.25566	0.0440788	0.0489913	2.28686	-0.0175236	0.0713935	2.35771	0.252004	1.35655	2.36665	0.191942	1.84118	2.41755	0.250177	1.07876	2.1189
109	0.545	0.383768	1.03391	2.31708	0.453574	1.52287	2.18113	0.488563	0.119969	2.12348	0.380664	0.123016	2.14559	0.428408	0.0719431	2.04623	0.455784	0.530745	2.21383	0.331928	0.506198	2.22172	0.51589	0.0447046	2.16875	0.38614	0.0426463	2.20494	0.413597	0.444983	2.2409	0.466587	0.367384	2.20621	0.466509	0.48084	2.1819	0.47808	0.705135	2.23899	0.409037	0.620493	2.10573	0.411356	0.700123	2.10592	0.521852	0.0583735	2.27657	0.391944	0.0511143	2.28418	0.44974	0.0686739	2.34613	0.0718453	1.06046	2.25984	0.0477529	1.51252	2.18346	-0.0386666	0.131631	2.12952	0.0681419	0.133124	2.16149	0.0215279	0.0720556	2.05328	0.00876944	0.535175	2.2119	0.132914	0.527141	2.2259	-0.0879898	-0.017786	2.15186	0.0580488	0.045811	2.21221	0.0534021	0.4681	2.23555	0.0105179	0.38173	2.22081	-0.0022795	0.486773	2.18464	0.00615239	0.724423	2.27618	0.017587	0.635961	2.12925	0.0256202	0.711323	2.12198	-0.0905622	0.0408043	2.25566	0.0440787	0.0489934	2.28686	-0.0175316	0.071397	2.35771	0.252014	1.35655	2.36669	0.191996	1.84114	2.41762	0.250598	1.07892	2.11905
110	0.55	0.383771	1.03391	2.31717	0.4536	1.52284	2.18116	0.48858	0.119988	2.12348	0.380669	0.123021	2.1456	0.428419	0.0719513	2.04624	0.45578	0.530758	2.21387	0.331943	0.506219	2.22175	0.516005	0.0449537	2.16883	0.386141	0.0426698	2.20495	0.413632	0.445003	2.24096	0.466602	0.367387	2.20622	0.466518	0.480847	2.18191	0.478078	0.705133	2.23905	0.409058	0.620495	2.10578	0.411429	0.700137	2.10599	0.521858	0.0583696	2.27658	0.39195	0.0511175	2.28418	0.449745	0.0686448	2.34613	0.0718465	1.06046	2.25991	0.047783	1.51251	2.18347	-0.0386334	0.131612	2.12954	0.0681606	0.133125	2.1615	0.0215379	0.0720713	2.05328	0.00878333	0.535173	2.21195	0.13291	0.527077	2.22586	-0.0879211	-0.0175819	2.15192	0.0580472	0.0458148	2.21223	0.0534136	0.468102	2.23559	0.0105293	0.381721	2.22084	-0.00226994	0.486776	2.18466	0.00616021	0.72442	2.27626	0.0173815	0.635685	2.12957	0.0256174	0.71133	2.12205	-0.0905593	0.0407928	2.25565	0.0440817	0.0489666	2.28686	-0.0175311	0.0713731	2.35772	0.25203	1.35655	2.36672	0.192052	1.84113	2.41771	0.250205	1.07875	2.11908
111	0.555	0.383781	1.03384	2.31726	0.453645	1.52281	2.18121	0.48856	0.119996	2.12349	0.380685	0.123019	2.14562	0.428424	0.0719654	2.04624	0.455789	0.530759	2.2139	0.331945	0.506259	2.22182	0.516011	0.0449878	2.16885	0.386147	0.0426626	2.20495	0.413646	0.445017	2.24099	0.466613	0.367402	2.20624	0.466531	0.480852	2.18193	0.478074	0.705131	2.23911	0.409046	0.620575	2.10582	0.411435	0.700164	2.10604	0.521854	0.058373	2.27658	0.391957	0.0511054	2.28419	0.449751	0.0686468	2.34613	0.0718612	1.06048	2.26	0.0478359	1.51251	2.18347	-0.038609	0.131607	2.12954	0.0681797	0.133128	2.16151	0.021555	0.0720665	2.05329	0.00878189	0.535177	2.21198	0.13293	0.527074	2.22592	-0.0878525	-0.0173779	2.15198	0.0580576	0.0458221	2.21223	0.0534203	0.468096	2.23563	0.0105354	0.381717	2.22086	-0.00226393	0.48678	2.1847	0.00615839	0.724415	2.27635	0.0173997	0.635688	2.12962	0.0256205	0.711332	2.1221	-0.0905451	0.0408034	2.25566	0.0440844	0.0489655	2.28687	-0.017524	0.0713556	2.35773	0.252034	1.35655	2.36675	0.1921	1.84112	2.41778	0.250215	1.07875	2.1192
